<?xml version="1.0" encoding="UTF-8"?>
<svg version="1.1" viewBox="0 0 1860 812" width="1280" height="1280" xmlns="http://www.w3.org/2000/svg">
<path transform="translate(1185,24)" d="m0 0h34l15 3 21 5 21 7 24 11 20 12 15 11 14 11 13 12 8 7 10 10 9 11 12 13 4 4 14-7 15-5 14-3 5 1 6 3-2-9v-8l5-2 17-1 15 4 16 8 14 11 12 12 1 5-4 3v3l5 3 5 5 8 7 9 11 12 14 11 12 2 4-6-2-33-17-16-8-2-4-8-2-2-4-2-1-2 7-4 1-19-11-2-1-3 6-14 15-16-1-15-2h-2l-2 4-4 5-1 3h8l7 9 10 11 5 7 10 4 12 11 11 13 11 14 12 14 13 16 9 10 13 15 12 14 11 13 11 12 1 3-6-2-22-12-39-19-47-23-33-15-11-8-4-4-2-5-1-2-5 1-10-6-17-9-3-3h-3l-4 8 2 9 8 17-1 5-5 8-5 9-7 2 4 5 8 7 7 8-1 4-3 2 1 3 4 3 2 4 6 3 8 9 9 11 13 15 8 9-2 1-30-15-21-10-3-3-2-3-6-1-5-2-3 5-9-4-15-9-15-14-9-13-5-11-3-15 1-4 8-2h17v-3l-11-1-3-3-1-6v-23l3-17-1-5-26-12-25-15-12-8-16-12-13-11-10-9-10-10-18-22-11-17-8-15-8-20-5-16-4-20-1-22 5-3z" fill="#015979"/>
<path transform="translate(275,268)" d="m0 0h47l42 1 49 3 41 4 39 5 47 8 43 9 48 12 31 9 42 13 30 11 43 17 43 19 33 16 22 12 25 14 24 15 7 5-2 1-21-12-23-12-28-13-26-11-23-9-35-13-30-10-43-13-35-9-37-9-50-10-43-7-48-6-51-4-19-1h-72l-42 3-27 3-36 6-23 5-28 8-22 8-20 9-20 11-17 12-10 9-6 5-9 11-7 10-8 16-4 12-2 14v27l3 18 4 16 4 8 3 8 7 9 5 9 12 16 9 11 12 14 9 9 8 7 12 11 11 9 14 11 9 7-2 1-27-18-15-11-14-11-11-9-17-16-29-29v-2h-2l-7-8-10-13-7-9-9-13-12-20-12-28-4-13-2-16-1-6 4-19 6-15 9-16 7-9 7-8 8-7 7-6 15-10 15-9 26-12 22-8 22-7 22-5 22-6 37-6 20-2z" fill="#06B1F7"/>
<path transform="translate(1653,387)" d="m0 0 5 2 24 16 18 13 9 8 12 9 7 6v2l4 2 17 17 6 5 7 8 12 12v2h2l13 17 8 11 10 15 10 18 7 15 4 11 4 14 1 12 2 5-1 6-3 16-6 15-8 14-8 11-12 12h-2l-2 4-11 8-15 10-14 7-15 7-17 7-23 8-15 4-44 11-31 5-30 3h-92l-42-2-46-4-34-4-46-7-50-10-46-11-40-11-45-14-38-14-35-14-30-13-34-16-20-10-23-13-18-10-13-8-16-10 3-1 23 13 30 15 36 16 27 11 41 15 51 16 32 9 56 14 44 9 48 8 48 6 60 5 21 1h58l44-3 37-4 30-5 33-8 26-8 21-8 19-9 20-12 14-10 12-11 11-12 8-13 7-14 4-12 2-20v-16l-2-19-3-13-7-15-2-9-4-2-10-16-9-13-13-16-14-15-9-9-8-7-15-13-17-13-10-8z" fill="#05B1F7"/>
<path transform="translate(1471,110)" d="m0 0h8l15 4 16 8 14 11 12 12 1 5-4 3v3l5 3 5 5 8 7 9 11 12 14 11 12 2 4-6-2-33-17-16-8-2-4-8-2-2-4-2-1-2 7-4 1-19-11-2-1-3 6-14 15-16-1-15-2h-2l-2 4-4 5-1 3h8l7 9 10 11 5 7 10 4 12 11 11 13 11 14 12 14 13 16 9 10 13 15 12 14 11 13 11 12 1 3-6-2-22-12-39-19-47-23-33-15-11-8-4-4-2-5-1-2-5 1-10-6-17-9-3-3h-3l-4 8 2 9 8 17-1 5-5 8-5 9-7 2 4 5 8 7 7 8-1 4-3 2 1 3 4 3 2 4 6 3 8 9 9 11 13 15 8 9-2 1-30-15-21-10-3-3-2-3-6-1-5-2-3 5-9-4-15-9-15-14-9-13-5-11-3-15 1-4 8-2h17v-3l-11-1-3-3-1-6v-23l2-12 4-10 14-19 12-15 12-16 11-14 10-13 13-17 5-7 14-7 15-5 14-3 5 1 6 3-2-9v-8l5-2z" fill="#01597A"/>
<path transform="translate(700,432)" d="m0 0h30l9 10 18 22 11 13 8 10 14 17 11 13 6 8 1-93h35l1 1v154l-13 1h-16l-5-5-13-15-9-11-11-13-11-14-13-15-11-14-5-6-1 92-12 1h-23l-1-1z" fill="#0081B0"/>
<path transform="translate(580,428)" d="m0 0h20l17 3 13 5 13 7 13 12 7 9 8 16 4 15 1 8v13l-3 19-6 14-7 11-10 11-13 9-12 6-14 4-16 2h-14l-17-3-12-4-13-7-10-8-7-7-7-10-7-15-3-11-1-6v-21l3-15 5-12 6-11 8-10 11-9 14-8 15-5zm-1 31-14 5-8 6-5 5-6 8-4 10-2 8v17l3 12 6 12 9 9 10 6 9 3 5 1h17l15-5 10-7 8-9 4-8 4-16v-12l-3-14-5-10-9-10-9-6-10-4-4-1z" fill="#0082B2"/>
<path transform="translate(357,432)" d="m0 0h75l16 2 16 6 10 7 8 8 7 14 3 14v10l-3 14-7 14-9 9-7 5-5 1 5 9 12 17 14 21 2 4-3 1h-34l-4-5-13-18-13-19-1-1-34-1v43l-9 1h-27v-155zm35 30v53h37l10-2 10-6 4-5 3-9v-11l-5-10-8-7-9-3z" fill="#0081B1"/>
<path transform="translate(1595,372)" d="m0 0 5 2 20 14 14 10 19 14 16 13 10 9 8 7 20 20 9 11 8 10 10 15 8 13 8 19 4 11 2 15 2 6v13l-2 4-2 12-6 15-9 14-11 13-11 10-19 13-23 12-26 10-23 7-29 7-27 5-32 4-21 2-23 1-15 1h-38v-1l29-2 3-1 26-2 17-3 29-5 40-10 31-12 25-12 16-10 14-10 12-11 9-10 5-8h2l1-4 6-11 6-18 2-17 1-9v-7l-2-5-1-15-8-24-13-25-10-15-11-14-13-15-19-19-8-7-11-10-14-11-10-8z" fill="#59CBFA"/>
<path transform="translate(356,320)" d="m0 0h26l1 2-35 3-34 5-34 7-22 5-33 13-20 9-23 14-14 10-12 11-7 9-8 11-8 16-4 10-2 9-1 12-1 3v15l1 2 2 18 7 21 8 16 7 13 11 16 9 11 9 10 7 8 18 18 11 9 14 12 12 9 9 7h-3l-24-16-18-13-15-11-16-13-11-9-16-15-15-15-9-11-10-13-9-14-7-12-6-13-5-15-4-21v-11l4-19 5-12 8-13 10-13 8-8h2l1-3 17-12 11-7 23-11 16-6 24-8 34-8 36-6 37-4z" fill="#59CBFA"/>
<path transform="translate(206,432)" d="m0 0h135l1 6v22l-1 2h-49v125l-14 1h-22l-1-126h-48l-1-1z" fill="#0181B1"/>
<path transform="translate(1500,432)" d="m0 0h21l1 1v85l43-43 7-8 34-34 2-1h23l1 2-8 7-6 7h-2l-2 4-14 14-1 2h-2l-2 4-15 15-7 8-7 7 11 13 9 11 11 13 9 11 11 13 8 10 11 13-2 2h-23l-5-5-10-11-9-11-10-11-9-11-12-13-5-6-3 1-7 8-11 11-6 5-1 2-1 40-9 1h-12l-1-1z" fill="#0182B1"/>
<path transform="translate(1236,432)" d="m0 0h20l5 8 16 35 19 42 13 28 12 27 6 13v2l-3 1h-19l-3-5-10-23-4-9v-3h-83l-5 10-11 26-3 4-22-1 2-5 10-21 28-63 7-15 12-26 11-24zm9 24-6 12-9 20-16 36-2 6h67l-5-13-17-38-10-23z" fill="#0183B3"/>
<path transform="translate(974,428)" d="m0 0h21l17 3 16 6 6 4 1 3-6 15-5-1-10-5-18-5h-25l-11 4-8 5-4 6-2 9 2 9 5 6 14 7 26 7 17 5 16 8 9 8 5 10 2 8v12l-4 13-8 11-11 8-10 4-13 3-11 1h-11l-16-2-20-6-16-9-1-5 6-15 5 1 10 7 15 6 16 3h18l12-3 9-5 5-6 2-6v-9l-4-8-7-6-13-5-30-8-15-5-12-7-7-7-6-12-1-4v-15l3-10 7-11 7-6 8-5 12-4z" fill="#0183B3"/>
<path transform="translate(1460,226)" d="m0 0 12 5 12 11 11 13 11 14 12 14 13 16 9 10 13 15 12 14 11 13 11 12 1 3-6-2-22-12-39-19-47-23-33-15-11-8-4-4-2-5 1-6 9-12 14-17 8-13z" fill="#06B1F7"/>
<path transform="translate(1408,428)" d="m0 0h9l17 2 15 5 14 8 8 7-1 5-6 5-5 7-8-6-10-7-13-5-5-1h-20l-16 5-12 7-6 5-7 10-6 12-3 13v20l4 15 6 12 11 12 10 6 12 5 11 2h13l16-4 11-6 10-9 7 6 7 7-1 4-9 8-15 8-15 4-5 1h-27l-17-4-11-5-10-6-12-11-9-13-5-11-4-14-1-5v-24l4-17 8-16 7-10 9-9 14-9 16-6 10-2z" fill="#0183B3"/>
<path transform="translate(1044,432)" d="m0 0h129l1 1v17l-1 1h-53v136l-19 1-3-1v-136h-53l-1-1z" fill="#0081B0"/>
<path transform="translate(1471,110)" d="m0 0h8l15 4 16 8 14 11 12 12 1 5-4 3v3l5 3 5 5 8 7 9 11 12 14 11 12 2 4-6-2-33-17-16-8-2-4-8-2-2-4-2-1-2 7-4 1-19-11-2-1-2 3-6-4-10-9-10-14-7-14v-3l-10-1 4-2 5 1 6 3-2-9v-8l5-2z" fill="#05B1F7"/>
<path transform="translate(1337,296)" d="m0 0 12 3 12 5 14 9 3 3-5 1 4 5 8 7 7 8-1 4-3 2 1 3 4 3 2 4 6 3 8 9 9 11 13 15 8 9-2 1-30-15-21-10-3-3-2-3-6-1-5-2-3 5-9-4-15-9-15-14-9-13-5-11-3-15 1-4 8-2h17z" fill="#05B1F7"/>
<path transform="translate(1262,80)" d="m0 0h14l8 3 8 5 4 6 4 13 1 5v8l-2 8-4 8-9 9-12 5-3 1-14-1-9-4-9-7-6-10-2-6v-14l4-11 9-10 10-6z" fill="#FDFDFD"/>
<path transform="translate(1456,236)" d="m0 0 5 2 3 2v2l4 2 3 3v2h2l8 10v2h2l8 11 12 13 4 5v2h2l9 11 3 3v2h2l4 5 6 5v5l-5-1-17-9-24-11-23-11-17-8-8-4-8-7-1-4 3-7 11-13 5-6z" fill="#58CAF9"/>
<path transform="translate(1431,199)" d="m0 0 9 1 7 9 10 11 3 4-1 5-3 1-2 5-7 10-13 16-11 15-5 1-10-6-17-9-5-5 8-9 8-11 7-9 10-13 8-11z" fill="#015B7C"/>
<path transform="translate(1394,132)" d="m0 0 4 2 7 8-18 24-10 13-7 9-10 13-13 17-10 13-9 12-2 7-1-3-1-5-11-5 3-3h2l1-4 4-6 8-10 13-17 11-14 7-9 6-9 4-7 9-9 10-13z" fill="#04B0F6"/>
<path transform="translate(1185,24)" d="m0 0h34l15 3 4 1v2l-20-2h-9l-5 4-30 39-7 9-1 2h-2l-5-21-1-6-1-22 5-3z" fill="#05B1F7"/>
<path transform="translate(1538,161)" d="m0 0 9 6 9 10 9 11 10 11 7 8 3 5-6-2-33-17-16-8-2-4-6-1 5-4 9-11z" fill="#0AB2F7"/>
<path transform="translate(1392,349)" d="m0 0 3 4 6 3 8 9 9 11 13 15 8 9-2 1-30-15-21-10-3-3-2-3-2-1 4-5 6-8z" fill="#09B2F7"/>
<path transform="translate(1448,246)" d="m0 0 5 1 12 14 13 15 5 6v2l-5-1-16-8-19-9-5-3v-5z" fill="#FDFDFD"/>
<path transform="translate(1262,80)" d="m0 0h14l8 3 8 5 4 6 4 13 1 5v8l-2 8-4 8-9 9-12 5-3 1-14-1-9-4-9-7-6-10-2-6v-14l4-11 9-10 10-6zm1 3-12 3-6 4-5 4-6 12-1 4v10l4 12 7 8 7 5 9 3h12l12-5 8-7 5-9 1-4v-17l-4-10-7-7-11-5z" fill="#3DC2F9"/>
<path transform="translate(1400,144)" d="m0 0 1 4-14 18-10 13-7 9-10 13-13 17-10 13-8 11h-3l1-5 8-11 4-6 4-4 4-6 12-15 6-8 4-5 8-11 12-16 7-8h2v-2z" fill="#49C6F9"/>
<path transform="translate(1431,199)" d="m0 0 5 1v2h-2l-2 5-10 13-11 14-12 16-7 9-2 2-4-4 8-9 8-11 7-9 10-13 8-11z" fill="#39C1F8"/>
<path transform="translate(1389,356)" d="m0 0 6 1 6 8 10 10 5 4v6l-4-2-17-10-9-4-2-2v-5z" fill="#57CAF9"/>
<path transform="translate(1448,126)" d="m0 0 5 1 6 3 1-2 4 11 9 12 9 10 7 7-1 5-6-3-11-10-10-14-7-14v-3l-10-1z" fill="#4EC5F7"/>
<path transform="translate(1536,167)" d="m0 0 5 1 7 9 12 12 1 5-5-2-19-10-8-5 1-5z" fill="#59CBFA"/>
<path transform="translate(1393,129)" d="m0 0 2 1-2 5-10 12-7 8-6 7-4 8-11 14-13 17-11 14-10 13-3 6-3 2-6-1-4-3h10l10-13 4-6h2l2-5h2l2-5 13-16 14-20 6-10 4-5 12-12 6-8z" fill="#0082B2"/>
<path transform="translate(1337,296)" d="m0 0 12 3 12 5 14 9 3 3-7 1-16-9-12-5-6-2z" fill="#54C9F9"/>
<path transform="translate(1256,81)" d="m0 0h17l10 4 8 6 2 4-8-6-9-4-13-1-12 3-6 4-3 3h-2l-2 5-4 11v10l2 10-3-1-2-6v-14l4-11 9-10 10-6z" fill="#38C1F8"/>
<path transform="translate(1595,372)" d="m0 0 5 2 20 14 14 10 6 5-3 1 1 4-4-2-9-9-14-11-16-13z" fill="#5CCCFA"/>
<path transform="translate(1536,169)" d="m0 0 4 1 4 5 3 3 2 5-7-1-5-2-5-5 1-4z" fill="#FDFDFD"/>
<path transform="translate(1389,359)" d="m0 0 6 2 8 8v3h-6l-8-3-2-3 1-6z" fill="#FDFDFD"/>
<path transform="translate(1234,129)" d="m0 0 3 1 4 6 8 7 11 4 11 1v3l-14-1-9-4-9-7-5-8z" fill="#3CC2F9"/>
<path transform="translate(1390,348)" d="m0 0h2l-1 6-4 6-7 9-2 1-2-1 1-4 12-16z" fill="#006488"/>
<path transform="translate(1263,79)" d="m0 0h18l9 5 7 6 3 8v9l-2-4-4-10-3-5-11-6-4-1-13-1z" fill="#0082B2"/>
<path transform="translate(1536,160)" d="m0 0 3 1-6 9-8 9h-5l2-4 9-11z" fill="#01698F"/>
<path transform="translate(1531,153)" d="m0 0 2 3 5 3-5 5h-2l-2 4h-5l1-5z" fill="#4EC7F9"/>
<path transform="translate(157,613)" d="m0 0 6 4 14 11 9 7-2 1-27-18z" fill="#1AB7F7"/>
<path transform="translate(1256,81)" d="m0 0h17l10 4 8 6 2 4-8-6-9-4-13-1-9 1v-3z" fill="#51C8F9"/>
<path transform="translate(1393,129)" d="m0 0 2 1-2 5-10 12-7 8-6 7h-2l2-5 4-5 12-12 6-8z" fill="#0283B3"/>
<path transform="translate(1262,80)" d="m0 0h14l8 3 8 5 4 6 1 6h-2l-4-8-5-4-7-4-6-2-11-1z" fill="#09B2F7"/>
<path transform="translate(1202,24)" d="m0 0h17l15 3 4 1v2l-20-2h-10l-1-2-5-1z" fill="#088CBE"/>
<path transform="translate(1296,100)" d="m0 0h2l3 12v8l-2 8-1 3-3-1 2-7v-17z" fill="#43C4F9"/>
<path transform="translate(1206,157)" d="m0 0 5 1 8 11 5 4 5 6 3 2-1 2-8-7-11-11z" fill="#088CBD"/>
<path transform="translate(910,583)" d="m0 0 4 1 19 10 1 4-10-5-14-9z" fill="#3BC1F8"/>
<path transform="translate(908,427)" d="m0 0 5 2 14 9 4 4-5-2-18-10z" fill="#3DC2F9"/>
<path transform="translate(1252,83)" d="m0 0 3 1-10 7-3 3h-2l-1 3h-2l2-4 9-8z" fill="#3DC2F9"/>
<path transform="translate(1636,403)" d="m0 0 5 2 2 3v3l3 1v2l-4-1-5-6z" fill="#0EB4F7"/>
<path transform="translate(1536,167)" d="m0 0 5 1 5 8-4-2-3-4-6 1v2l-4 2 2-4z" fill="#50C8F9"/>
<path transform="translate(1252,147)" d="m0 0 12 1h7v3l-14-1-5-2z" fill="#26BBF8"/>
<path transform="translate(1653,387)" d="m0 0 5 2 11 7-3 2-13-10z" fill="#59CBFA"/>
<path transform="translate(173,626)" d="m0 0 4 2 9 7-2 1-12-8z" fill="#59CBFA"/>
<path transform="translate(905,580)" d="m0 0 5 2-2 1z" fill="#59CBFA"/>
<path transform="translate(1650,385)" d="m0 0 3 1h-3z" fill="#59CBFA"/>
<path transform="translate(1593,370)" d="m0 0 2 2h-2z" fill="#FDFDFD"/>
<path transform="translate(903,579)" d="m0 0 2 1z" fill="#59CBFA"/>
<path transform="translate(931,442)" d="m0 0 2 1z" fill="#59CBFA"/>
<path transform="translate(250,655)" d="m0 0" fill="#FDFDFD"/>
<path transform="translate(189,638)" d="m0 0" fill="#59CBFA"/>
<path transform="translate(188,637)" d="m0 0" fill="#59CBFA"/>
<path transform="translate(186,636)" d="m0 0" fill="#59CBFA"/>
<path transform="translate(902,578)" d="m0 0" fill="#59CBFA"/>
<path transform="translate(900,577)" d="m0 0" fill="#59CBFA"/>
<path transform="translate(1591,369)" d="m0 0" fill="#FDFDFD"/>
<path transform="translate(1588,366)" d="m0 0" fill="#59CBFA"/>
</svg>
