<?xml version="1.0" encoding="UTF-8"?>
<svg version="1.1" viewBox="0 0 2048 744" width="1280" height="1280" xmlns="http://www.w3.org/2000/svg">
<path transform="translate(327,210)" d="m0 0h78l43 2 51 4 46 5 38 6 38 7 40 9 40 10 41 12 55 18 40 15 39 16 36 16 38 18 29 15 23 13 17 10 1 2-6-2-37-17-33-14-38-15-44-16-36-12-48-15-52-14-41-10-48-10-46-8-45-6-23-2-38-2h-84l-38 2-41 4-35 5-36 7-32 8-17 6-25 12-18 10-20 14-15 13-11 12-9 14-7 14-6 18-3 15-1 21 2 19 5 21 8 20 12 23 10 15 9 12 9 11 24 26 12 11 10 9 14 11 10 8h-3l-18-12-15-11-13-10-10-8-11-9-14-12-15-14-20-20-7-8-11-13-12-16-11-17-13-25-7-19-4-17-1-7v-29l3-18 6-16 8-14 11-14 13-13 17-13 17-11 18-10 25-11 24-8 24-6 32-6 39-5 39-3z" fill="#F27A28"/>
<path transform="translate(1810,326)" d="m0 0 5 2 19 13 21 16 13 10 13 11 8 7 10 9 12 11 16 16 7 8 12 14 14 19 13 21 12 25 6 19 3 15 1 20-2 20-4 17-8 17-8 11-9 11-8 8-14 11-14 10-21 12-25 12-22 8-26 7-36 7-39 5-35 3-18 1-35 1h-30l-38-1-51-3-53-5-32-4-43-7-40-8-50-12-43-12-35-11-44-15-31-12-32-13-23-10-24-11-25-12-28-14-22-12-26-15-1-2 9 3 25 12 30 13 45 18 38 14 25 9 50 16 52 15 56 14 47 10 45 8 49 7 38 3 41 2h57l56-3 39-4 40-6 39-8 25-7 19-7 26-13 19-12 14-10 11-10 7-6 11-14 9-16 7-19 4-17 1-10v-19l-3-20-6-21-8-18-10-19-8-12-12-16-9-11-12-13-24-24-11-9-13-11-8-6z" fill="#F27A28"/>
<path transform="translate(1387,35)" d="m0 0 14 1 24 5 25 7 19 8 20 11 19 13 21 16 14 12 4 4-2 5-10 14-7 11-10 15-15 23-11 17-8 14-5-1-21-10-24-14-16-10-17-13-10-9-8-8-18-22-12-17-5-9 1-5 10-16 10-15 11-17z" fill="#F27A28"/>
<path transform="translate(778,388)" d="m0 0h32l9 10 11 14 11 13 27 33 26 32 2 1-1-9v-40l1-54h37l1 1v168l-1 1h-32l-27-33-14-17-13-16-14-17-9-11-6-8-2-1v103h-38z" fill="#FEFEFE"/>
<path transform="translate(646,385)" d="m0 0h27l16 3 15 6 11 6 11 9 8 8 9 14 5 11 3 10 2 11v20l-3 16-7 16-6 10-11 12-11 9-16 8-16 5-12 2h-23l-20-4-15-6-11-7-10-9-8-8-8-13-5-12-4-16-1-7v-12l4-21 7-16 8-12 7-8 14-11 16-8 13-4zm11 32-16 3-12 6-10 9-7 10-5 13-1 6v18l3 13 6 11 9 10 9 6 9 4 8 2h20l13-4 10-6 9-8 8-14 3-10 1-9v-9l-3-15-7-14-8-9-11-7-10-4z" fill="#FEFEFE"/>
<path transform="translate(404,388)" d="m0 0h88l18 4 16 8 10 8 7 9 5 10 3 13v20l-4 14-5 9-9 10-8 6-8 4 5 9 8 11 16 23 7 10v2h-41l-14-20-11-16-8-11h-36l-1 47h-38zm39 31-1 1v60h40l13-3 9-6 6-8 2-8v-12l-4-11-7-7-12-5-11-1z" fill="#FEFEFE"/>
<path transform="translate(1743,310)" d="m0 0 6 2 18 10 21 14 13 10 11 9 14 12 8 8 8 7 24 26 8 10 13 17 9 14 8 16 6 16 4 17 1 7v25l-4 16-7 16-8 12-11 13-14 13-17 12-21 12-23 10-33 11-32 8-31 6-38 5-24 2-20 1h-41v-1l43-4 34-5 34-7 26-7 28-10 24-11 17-10 13-9 11-9 12-11 10-11 14-19 8-15 5-16 2-13v-18l-3-22-8-24-8-17-11-18-12-17-11-13-9-10-14-15-15-14-11-9-16-13-11-8z" fill="#FBCE54"/>
<path transform="translate(376,266)" d="m0 0h54v1l-39 3-30 4-36 7-34 9-25 9-24 11-19 11-14 10-14 12-11 11-9 11-11 15-8 16-4 11-3 20v12l2 18 5 19 6 15 8 16 12 20 10 13 8 10 9 10 7 8 17 17 8 7 14 12 20 15 4 4-6-2-21-12-15-10-16-12-10-8-13-11-16-15-11-11-7-8-9-10-11-14-13-17-10-17-8-19-6-23-1-8v-21l3-15 6-15 8-13 10-13 12-12 17-13 18-11 15-8 31-12 27-8 30-7 33-6 33-4z" fill="#FBCE54"/>
<path transform="translate(239,388)" d="m0 0h149v31h-55v138l-1 1h-38v-139h-55z" fill="#FEFEFE"/>
<path transform="translate(1323,379)" d="m0 0h47l8 3 6 7 1 3v12l-4 16-4 6-5 5 2 10 6 19 1 1 15-43 14-39h43l1 60v27h-26v-19l-17 1-1 7-3 10-1 1h-53l-10-30-3-3-5 32-1 1h-26l2-15zm23 19-2 2-2 14v5l10-1 4-2 2-3v-10l-4-4zm80 3-8 25v4h11l1-5v-24z" fill="#FBCE54"/>
<path transform="translate(1588,109)" d="m0 0 5 1 5 9 9 10 12 9 6 4 1 4-9 10-6 5-23-2-20 30-13 20-12 19 1 5 8 14v7l-5 13-4 4-19-11-13-5-9-1-5-1-2-11v-31l8-11 11-17 15-23 13-20 11-17 7-3 17-8z" fill="#FBCE54"/>
<path transform="translate(1415,472)" d="m0 0h51l10 5 4 6 1 11-3 14-5 8-3 1v3l4 2 3 5v12l-4 13-6 7-10 5-4 1h-54l1-12 14-80zm24 21-2 2-2 10v5h12l5-5 1-5-3-5-4-2zm-7 35-2 6-1 9h15l6-5 1-4-3-5-2-1z" fill="#F27A28"/>
<path transform="translate(1657,472)" d="m0 0h51l9 4 5 7 1 11-4 20-3 6-4 5-3 2 1 8 8 27v3h-29l-9-27-3-7h-2l-3 15-3 19h-28l1-12 14-79zm24 21-2 2-2 13v5h11l6-5v-10l-3-4-3-1z" fill="#F27A28"/>
<path transform="translate(1118,471)" d="m0 0 23 1 10 5 5 6 3 10-1 15-6 31-4 9-7 9-10 6-8 2h-49l3-21 12-68 1-4zm-4 22-3 9-6 35v6h13l5-3 3-5 5-26v-8l-3-5-6-3z" fill="#F27A28"/>
<path transform="translate(1738,471)" d="m0 0h21l28 1 9 4 7 8 2 7v13l-6 33-5 12-8 9-12 6-5 1h-48l1-13 14-79zm22 22-2 6-7 40v4h14l6-5 4-16 2-11v-11l-5-6-4-1z" fill="#F27A28"/>
<path transform="translate(1330,472)" d="m0 0h26l-2 16-4 22h21l1-10 5-27 1-1h26l-1 10-12 68-3 15h-26l1-13 3-18 1-2-21 1-5 30-1 2h-26l1-12 14-80z" fill="#F27A28"/>
<path transform="translate(1280,470)" d="m0 0 18 1 10 4 5 5 3 5 1 9-2 10-2 3h-27l2-4 1-4-3-5-2-1h-9l-5 3v6l5 4 13 4 10 3 8 6 4 7 1 11-2 11-6 10-10 6-13 3h-23l-11-3-6-4-4-5-1-3v-18l1-1h25l1 4 2 5 2 2 10 1 6-3 1-4-5-5-16-6-10-4-7-6-4-10v-8l2-9 5-8 7-6 9-4z" fill="#F27A28"/>
<path transform="translate(1528,470)" d="m0 0h11l10 2 8 4 5 6 3 8v13l-6 34-5 13-9 10-10 5-10 2h-19l-11-3-7-5-4-8-1-5v-9l6-35 4-11 5-8 8-7 9-4zm0 22-7 3-4 5-4 16-3 18 1 7 5 4h7l6-4 4-8 5-28v-7l-5-5z" fill="#F27A28"/>
<path transform="translate(1661,379)" d="m0 0h26l12 35 6-33 1-2h25l-2 14-12 69-1 4h-25l-4-10-9-27-7 37h-25l1-10 13-73z" fill="#FBCE54"/>
<path transform="translate(1588,472)" d="m0 0h46v92l-1 1h-26l-1-1 1-19h-18l-3 12-3 8h-28l3-11 16-45 13-36zm17 23-6 16-4 15h13l1-19v-12z" fill="#F27A28"/>
<path transform="translate(1185,471)" d="m0 0 44 1v93h-27v-11l1-9-18 1-6 19h-28l2-9 30-84zm16 24-4 9-6 20v2h12l1-3 1-27z" fill="#F27A28"/>
<path transform="translate(1608,378)" d="m0 0h18l8 2 7 4 4 5 3 10-1 13-6 31-4 9-6 8-12 6-10 2h-16l-9-2-8-5-4-6-1-3v-16l6-32 4-10 8-9 10-5zm2 20-7 6-3 9-4 23v6l2 4 4 2h6l6-4 3-6 5-27v-7l-3-5-2-1z" fill="#FBCE54"/>
<path transform="translate(1126,378)" d="m0 0h19l10 3 6 4 4 7 1 4v14l-6 31-4 11-9 10-9 4-10 2h-17l-13-4-6-7-2-4v-19l5-28 4-11 9-10 7-4 5-2zm3 20-6 4-4 9-4 23v9l3 4 8 1 6-3 3-5 5-25v-13l-4-4z" fill="#FBCE54"/>
<path transform="translate(1762,378)" d="m0 0h21l10 3 6 4 4 7v14l-2 5-2 1h-24l2-5-1-7-4-2-9 1-4 4 1 5 4 3 22 7 8 6 3 5 1 4v11l-3 10-6 7-10 5-12 2h-17l-14-3-7-6-2-4-1-8 1-9 1-1 24-1 1 8 4 3h11l3-2-1-7-10-5-16-6-7-5-4-8v-13l4-10 5-6 10-5z" fill="#FBCE54"/>
<path transform="translate(1254,379)" d="m0 0h64l-3 17-1 2h-38l-2 13-1 3h32l-2 13-2 6-1 1h-31l-1 10-1 2h38l1 3-3 16-1 1h-63l1-9 13-74z" fill="#FBCE54"/>
<path transform="translate(1179,379)" d="m0 0h49l8 3 5 5 2 6v9l-3 17-5 10-8 7-8 3-5 1h-20l-2 14-2 12h-26l5-29zm23 19-2 5-2 11v5l1 1h10l5-3 3-8v-6l-2-3-8-2z" fill="#FBCE54"/>
<path transform="translate(1612,189)" d="m0 0 7 1 11 8-1 3 5 5 13 18 9 10 11 10 8 7 12 13 8 7 14 12 12 12-2 1-5-3-4-1-2-2-6-1-23-11-24-9-23-10-31-7-9-4-11-7-1-3 9-14 4-3 16 8 8 5 12 5 7 3-15-14-6-7-14-10-1-4 10-15zm6 20m1 1m1 1 1 3v-3zm2 3 2 5 10 11 5 5 14 15 3 4h-7l3 2 21 10v-3l-16-15-12-11-11-12-11-11zm-10 27m2 1m3 1m21 7m3 1m3 1m2 1m37 18m1 1m2 1 1 2 2-1zm3 2 4 4 12 8 2 2 3-2-10-7-9-5z" fill="#F27E2A"/>
<path transform="translate(1459,379)" d="m0 0h85l-2 13-2 6h-29l-2 14-9 53-1 1h-25l1-9 10-56v-2h-29z" fill="#FBCE54"/>
<path transform="translate(1429,76)" d="m0 0h9l11 3 8 6 6 9 3 12-1 10-2 8-5 6-8 5-9 3h-13l-14-7-7-8-4-11v-10l3-9 6-9 10-6z" fill="#FEFEFE"/>
<path transform="translate(1510,259)" d="m0 0 10 2 11 6 16 10 7 5-4 8-16 24-2 4-4-1-16-10-14-10-6-8-4-12-2-12 1-2 13-3z" fill="#F27B28"/>
<path transform="translate(1612,90)" d="m0 0h16l14 7 21 14 1 4-8 12-11 17-3 4-4-1-24-16-9-8-4-8-3-11-1-10z" fill="#F27A28"/>
<path transform="translate(1570,378)" d="m0 0 2 2-14 80-2 6h-25l5-29 10-57 1-1z" fill="#FBCE54"/>
<path transform="translate(1585,167)" d="m0 0 4 2 7 9v2l5 2 7 7-2 6-26 39-4 1-9-4-8-3-7-2-4-3 18-27 13-20z" fill="#F27B28"/>
<path transform="translate(1607,196)" d="m0 0 7 6 5 6 2 5 9 12 8 7 9 11 11 11-2 1-12-2-11-3-14-5-5-2-25-5-7-3 7-11 4-3 16 8 8 5 12 5 7 3-15-14-6-7-14-10-1-4z" fill="#FBCE54"/>
<path transform="translate(1372,34)" d="m0 0h7l-6 11-30 45-2-3-5-16-2-10v-13l8-5 11-5 12-3z" fill="#F27B28"/>
<path transform="translate(1673,129)" d="m0 0 5 2 10 11 7 8 22 22 6 5-2 1-15-7-15-6-11-4-15-4-7-5 2-4 3-4 5 1 12 7-2-4-5-5-5-4 1-5zm6 15m2 1m1 1v2l2-1zm2 2m1 1m1 1m1 1m1 1m1 1m1 1 2 4 6 5 2-1-9-8z" fill="#F2802B"/>
<path transform="translate(1563,297)" d="m0 0 4 1 8 7 9 11 11 10 7 8 10 9-2 1-17-7-20-8-18-5-6-5 2-5 4-3 18 9-8-9-7-6zm7 14m1 1 5 5-2-4zm5 5 2 2v-2zm2 2m1 1m1 1m1 1m1 1m1 1 2 4 5 2-4-5z" fill="#F27F2A"/>
<path transform="translate(1548,116)" d="m0 0h2l1 7-9 14-10 15-17 26-14 22-8 11-6 1 1-5 13-20 19-29 16-25 11-16z" fill="#F27C29"/>
<path transform="translate(1663,121)" d="m0 0 5 2 2 4-11 17-4 5-4-2-2-3 1-5 10-15z" fill="#F27B29"/>
<path transform="translate(1552,291)" d="m0 0 7 2-1 5-9 15-3 4-4 1-4-4 1-4 10-16z" fill="#F27D2A"/>
<path transform="translate(1561,300)" d="m0 0 7 6 5 6v2l10 10-1 2-27-7-5-2 3-5 2-1 18 9-8-9-7-6z" fill="#FBCE54"/>
<path transform="translate(1670,133)" d="m0 0 4 2 7 8 1 5 4 2 5 6v1l-9-1-20-5-3-2 4-5 5 1 12 7-2-4-5-5-5-4 1-5z" fill="#FBCE54"/>
<path transform="translate(1702,278)" d="m0 0 5 3 14 14-2 1-5-3-4-1-2-2-6-1-2-2-1-4 5 2 2 2h3l-9-6z" fill="#FAC851"/>
<path transform="translate(1699,283)" d="m0 0 5 2 2 2 2 1v2l-6-1-2-2z" fill="#FACA52"/>
<path transform="translate(212,607)" d="m0 0 3 1h-3z" fill="#F6A43E"/>
<path transform="translate(1807,324)" d="m0 0 3 1h-3z" fill="#F48F33"/>
<path transform="translate(998,543)" d="m0 0 2 1z" fill="#F6A43E"/>
<path transform="translate(1020,388)" d="m0 0 2 1z" fill="#FBCE54"/>
<path transform="translate(1612,344)" d="m0 0 2 1z" fill="#FBCE54"/>
<path transform="translate(1804,322)" d="m0 0 2 1z" fill="#FBCE54"/>
<path transform="translate(215,609)" d="m0 0" fill="#FBCE54"/>
<path transform="translate(997,542)" d="m0 0" fill="#FBCE54"/>
<path transform="translate(1614,345)" d="m0 0" fill="#FBCE54"/>
<path transform="translate(1806,323)" d="m0 0" fill="#F27A28"/>
<path transform="translate(1803,321)" d="m0 0" fill="#FBCE54"/>
<path transform="translate(1742,309)" d="m0 0" fill="#FBCE54"/>
<path transform="translate(1708,290)" d="m0 0" fill="#FBCE54"/>
<path transform="translate(1706,287)" d="m0 0" fill="#FBCE54"/>
<path transform="translate(1658,255)" d="m0 0" fill="#FBCE54"/>
<path transform="translate(1630,200)" d="m0 0" fill="#FBCE54"/>
<path transform="translate(1723,178)" d="m0 0" fill="#FBCE54"/>
</svg>
