<?xml version="1.0" encoding="UTF-8"?>
<svg version="1.1" xmlns="http://www.w3.org/2000/svg" width="404" height="212">
<path d="M0 0 C4.75275555 1.60566066 8.5469331 4.21880165 12.625 7.0625 C13.33285645 7.55347168 14.04071289 8.04444336 14.77001953 8.55029297 C20.76078863 12.74940478 26.46726222 17.21072386 32 22 C33.2065625 23.04027344 33.2065625 23.04027344 34.4375 24.1015625 C36.99980554 26.36000488 39.5075254 28.66467556 42 31 C42.50821289 31.47421387 43.01642578 31.94842773 43.54003906 32.43701172 C54.27946999 42.54034286 62.80007176 53.20468808 69.5 66.375 C69.98980347 67.33756714 69.98980347 67.33756714 70.48950195 68.31958008 C75.94568494 79.57631766 76.93055131 92.9944169 74.3125 105.20703125 C73.39104915 107.64503664 72.33979161 109.76701398 71 112 C70.57589844 112.76183594 70.15179688 113.52367187 69.71484375 114.30859375 C58.65337176 132.58005026 35.54530115 142.45604834 15.59472656 147.42089844 C-1.39185073 151.21203142 -18.61862689 153.13654045 -36.00390625 153.203125 C-37.22850052 153.21013931 -38.45309479 153.21715363 -39.71479797 153.22438049 C-43.66404883 153.24184587 -47.61321874 153.24881663 -51.5625 153.25 C-52.57149227 153.25066278 -52.57149227 153.25066278 -53.60086823 153.25133896 C-74.86692096 153.25866921 -95.89701857 152.88638323 -117 150 C-118.88477051 149.74259033 -118.88477051 149.74259033 -120.80761719 149.47998047 C-180.15981833 141.03666581 -237.78693663 121.33288133 -290.3125 92.5 C-291.04122314 92.10296875 -291.76994629 91.7059375 -292.52075195 91.296875 C-296.19994327 89.22962523 -299.16972876 87.20133508 -302 84 C-297.15842522 85.45001478 -292.65463807 87.45124815 -288.05981445 89.52758789 C-233.53933935 114.14685005 -173.80791584 132.52257127 -114 138 C-112.87247314 138.10368896 -112.87247314 138.10368896 -111.72216797 138.20947266 C-65.5491012 142.15882772 -5.79817058 141.96028264 33 113 C43.64990533 103.95008045 49.69508732 92.78200581 51.38671875 78.8046875 C52.17252153 56.7480165 39.99748632 38.99420241 25.9375 23.1875 C19.29065614 16.05131794 11.99749414 10.12250518 4.21557617 4.28686523 C2.79341322 3.2133643 1.39428112 2.1094737 0 1 C0 0.67 0 0.34 0 0 Z " fill="#F37726" transform="translate(318,51)"/>
<path d="M0 0 C1.22459427 -0.00701431 2.44918854 -0.01402863 3.71089172 -0.02125549 C7.66014258 -0.03872087 11.60931249 -0.04569163 15.55859375 -0.046875 C16.56758602 -0.04753778 16.56758602 -0.04753778 17.59696198 -0.04821396 C38.86301471 -0.05554421 59.89311232 0.31674177 80.99609375 3.203125 C82.25260742 3.37473145 83.50912109 3.54633789 84.80371094 3.72314453 C144.15591208 12.16645919 201.78303038 31.87024367 254.30859375 60.703125 C255.03731689 61.10015625 255.76604004 61.4971875 256.5168457 61.90625 C260.19603702 63.97349977 263.16582251 66.00178992 265.99609375 69.203125 C261.15451897 67.75311022 256.65073182 65.75187685 252.0559082 63.67553711 C197.5354331 39.05627495 137.80400959 20.68055373 77.99609375 15.203125 C77.24440918 15.13399902 76.49272461 15.06487305 75.71826172 14.99365234 C29.54519495 11.04429728 -30.20573567 11.24284236 -69.00390625 40.203125 C-79.65381158 49.25304455 -85.69899357 60.42111919 -87.390625 74.3984375 C-88.17642778 96.4551085 -76.00139257 114.20892259 -61.94140625 130.015625 C-54.0866651 138.4486293 -45.16017759 145.26613284 -36.00390625 152.203125 C-36.66390625 152.533125 -37.32390625 152.863125 -38.00390625 153.203125 C-66.43700787 134.70144363 -102.63606842 108.69772879 -110.65527344 73.33251953 C-112.37584091 62.82356332 -112.58982059 50.51298223 -107.00390625 41.203125 C-106.57980469 40.44128906 -106.15570313 39.67945313 -105.71875 38.89453125 C-94.65727801 20.62307474 -71.5492074 10.74707666 -51.59863281 5.78222656 C-34.61205552 1.99109358 -17.38527936 0.06658455 0 0 Z " fill="#F37726" transform="translate(124.00390625,5.796875)"/>
<path d="M0 0 C6.868125 -0.061875 13.73625 -0.12375 20.8125 -0.1875 C24.02963745 -0.22846802 24.02963745 -0.22846802 27.31176758 -0.27026367 C41.77562271 -0.37910359 54.52855908 0.50625621 65.81640625 10.62890625 C73.61702514 19.05513868 75.49457026 28.96803317 75.27734375 40.1015625 C74.65291789 48.87870344 71.20833113 56.72284037 65 63 C55.31596351 70.90533591 45.33496562 73.16695291 33.10546875 73.09765625 C32.26520142 73.09664917 31.42493408 73.09564209 30.5592041 73.09460449 C27.43528875 73.0893921 24.31139293 73.07543087 21.1875 73.0625 C10.6996875 73.0315625 10.6996875 73.0315625 0 73 C0 48.91 0 24.82 0 0 Z M22 18 C22 30.21 22 42.42 22 55 C36.35814614 55.82622419 36.35814614 55.82622419 47.75 49.8125 C51.56331962 45.04585048 53.36761131 40.59543516 52.9375 34.4375 C51.9726662 28.48427015 49.81706959 24.43851342 45 20.625 C37.20604521 16.40327449 31.98468334 18 22 18 Z " fill="#FFFFFF" transform="translate(238,69)"/>
<path d="M0 0 C7.5125127 5.66643449 12.50558529 13.44248019 14.2890625 22.7265625 C15.20808952 35.39708256 13.66416461 45.76938558 5.25390625 55.7265625 C-3.30122954 64.43477229 -14.36076642 67.88468164 -26.3984375 68.1640625 C-37.59307304 67.80776506 -47.39949614 64.55529324 -55.75390625 56.83984375 C-64.39677679 47.45984139 -66.20270203 38.43634067 -65.98828125 26.00390625 C-65.60470548 17.26944699 -61.6116059 10.04968061 -55.7109375 3.7265625 C-40.27976 -10.36702879 -17.35166147 -11.18218184 0 0 Z M-39.4609375 17.5390625 C-43.19673628 22.83144411 -44.2671779 27.27417384 -43.7109375 33.7265625 C-42.32791446 40.20162492 -39.22195432 44.10682645 -33.7109375 47.7265625 C-28.86979135 49.34027788 -23.52482367 49.70345883 -18.640625 48.0078125 C-13.45750656 45.22553247 -10.57364956 41.86280189 -8.3984375 36.4765625 C-7.31192709 30.5501421 -7.61914053 25.30885593 -10.4609375 19.9140625 C-13.36295465 15.80287153 -15.91773674 13.32429609 -20.7109375 11.7265625 C-28.53915122 11.02593063 -33.77236618 11.72120546 -39.4609375 17.5390625 Z " fill="#FFFFFF" transform="translate(217.7109375,75.2734375)"/>
<path d="M0 0 C21.78 0 43.56 0 66 0 C66 5.61 66 11.22 66 17 C65.505 17.495 65.505 17.495 65 18 C58.07 18 51.14 18 44 18 C44 36.15 44 54.3 44 73 C36.74 73 29.48 73 22 73 C22 54.85 22 36.7 22 18 C14.74 18 7.48 18 0 18 C0 12.06 0 6.12 0 0 Z " fill="#FFFFFF" transform="translate(88,69)"/>
<path d="M0 0 C4.6006796 0.54379515 7.90553042 2.5494944 11.6875 5.0625 C12.30399414 5.46662109 12.92048828 5.87074219 13.55566406 6.28710938 C18.96673044 9.88323149 24.06193449 13.77557519 29 18 C29.79664063 18.67417969 30.59328125 19.34835938 31.4140625 20.04296875 C47.6246318 34.169322 65.05721816 52.52402384 67 75 C67.3865351 86.75958707 63.75460429 95.81610825 56.25 104.8125 C31.60705074 130.61785253 -11.34985533 134.95760222 -45 136 C-48.66899575 136.05892391 -52.33130522 136.07419832 -56 136 C-56.33 135.34 -56.66 134.68 -57 134 C-55.95380493 133.90295776 -55.95380493 133.90295776 -54.88647461 133.80395508 C-33.0460482 131.72229781 -11.17692606 129.11250236 9 120 C9.63873047 119.71286133 10.27746094 119.42572266 10.93554688 119.12988281 C26.55393409 111.91359501 41.21548699 99.85484472 47.30859375 83.32421875 C51.19474871 70.26059048 47.93822102 57.9054798 42 46 C36.47812779 36.17840033 29.85906504 28.03091049 22 20 C21.26007813 19.20980469 20.52015625 18.41960937 19.7578125 17.60546875 C14.94570367 12.57302526 9.74414558 8.32327087 4.16455078 4.18505859 C2.76168686 3.14284743 1.37869671 2.07397703 0 1 C0 0.67 0 0.34 0 0 Z " fill="#F2CC4D" transform="translate(292,48)"/>
<path d="M0 0 C0.495 0.99 0.495 0.99 1 2 C0.30253662 2.06469482 -0.39492676 2.12938965 -1.11352539 2.19604492 C-22.9539518 4.27770219 -44.82307394 6.88749764 -65 16 C-65.9580957 16.43070801 -65.9580957 16.43070801 -66.93554688 16.87011719 C-82.55393409 24.08640499 -97.21548699 36.14515528 -103.30859375 52.67578125 C-107.19474871 65.73940952 -103.93822102 78.0945202 -98 90 C-92.47812779 99.82159967 -85.85906504 107.96908951 -78 116 C-76.89011719 117.18529297 -76.89011719 117.18529297 -75.7578125 118.39453125 C-69.7402371 124.68763666 -62.97787177 129.8340022 -56 135 C-59 136 -59 136 -62.1875 134.4453125 C-63.46649167 133.68544197 -64.73689792 132.91100005 -66 132.125 C-66.66990967 131.71443359 -67.33981934 131.30386719 -68.0300293 130.88085938 C-74.11505855 127.07271973 -79.61192904 122.74150244 -85 118 C-85.81726563 117.30390625 -86.63453125 116.6078125 -87.4765625 115.890625 C-103.67624779 101.79947018 -121.06080114 83.43452477 -123 61 C-123.3865351 49.24041293 -119.75460429 40.18389175 -112.25 31.1875 C-85.47260677 3.14702219 -36.48008306 -0.73779943 0 0 Z " fill="#F2CC4D" transform="translate(164,27)"/>
</svg>
