<?xml version="1.0" encoding="UTF-8"?>
<svg version="1.1" viewBox="0 0 1860 812" width="1280" height="1280" xmlns="http://www.w3.org/2000/svg">
<path transform="translate(1185,24)" d="m0 0h34l15 3 21 5 21 7 24 11 20 12 15 11 14 11 13 12 8 7 10 10 9 11 12 13 4 4 14-7 15-5 14-3 5 1 6 3-2-9v-8l5-2 17-1 15 4 16 8 14 11 12 12 1 5-4 3v3l5 3 5 5 8 7 9 11 12 14 11 12 2 4-6-2-33-17-16-8-2-4-8-2-2-4-2-1-2 7-4 1-19-11-2-1-3 6-14 15-16-1-15-2h-2l-2 4-4 5-1 3h8l7 9 10 11 5 7 10 4 12 11 11 13 11 14 12 14 13 16 9 10 13 15 12 14 11 13 11 12 1 3-6-2-22-12-39-19-47-23-33-15-11-8-4-4-2-5-1-2-5 1-10-6-17-9-3-3h-3l-4 8 2 9 8 17-1 5-5 8-5 9-7 2 4 5 8 7 7 8-1 4-3 2 1 3 4 3 2 4 6 3 8 9 9 11 13 15 8 9-2 1-30-15-21-10-3-3-2-3-6-1-5-2-3 5-9-4-15-9-15-14-9-13-5-11-3-15 1-4 8-2h17v-3l-11-1-3-3-1-6v-23l3-17-1-5-26-12-25-15-12-8-16-12-13-11-10-9-10-10-18-22-11-17-8-15-8-20-5-16-4-20-1-22 5-3z" fill="#008081"/>
<path transform="translate(275,268)" d="m0 0h47l42 1 49 3 41 4 39 5 47 8 43 9 48 12 31 9 42 13 30 11 43 17 43 19 33 16 22 12 25 14 24 15 7 5-2 1-21-12-23-12-28-13-26-11-23-9-35-13-30-10-43-13-35-9-37-9-50-10-43-7-48-6-51-4-19-1h-72l-42 3-27 3-36 6-23 5-28 8-22 8-20 9-20 11-17 12-10 9-6 5-9 11-7 10-8 16-4 12-2 14v27l3 18 4 16 4 8 3 8 7 9 5 9 12 16 9 11 12 14 9 9 8 7 12 11 11 9 14 11 9 7-2 1-27-18-15-11-14-11-11-9-17-16-29-29v-2h-2l-7-8-10-13-7-9-9-13-12-20-12-28-4-13-2-16-1-6 4-19 6-15 9-16 7-9 7-8 8-7 7-6 15-10 15-9 26-12 22-8 22-7 22-5 22-6 37-6 20-2z" fill="#15FDFD"/>
<path transform="translate(1653,387)" d="m0 0 5 2 24 16 18 13 9 8 12 9 7 6v2l4 2 17 17 6 5 7 8 12 12v2h2l13 17 8 11 10 15 10 18 7 15 4 11 4 14 1 12 2 5-1 6-3 16-6 15-8 14-8 11-12 12h-2l-2 4-11 8-15 10-14 7-15 7-17 7-23 8-15 4-44 11-31 5-30 3h-92l-42-2-46-4-34-4-46-7-50-10-46-11-40-11-45-14-38-14-35-14-30-13-34-16-20-10-23-13-18-10-13-8-16-10 3-1 23 13 30 15 36 16 27 11 41 15 51 16 32 9 56 14 44 9 48 8 48 6 60 5 21 1h58l44-3 37-4 30-5 33-8 26-8 21-8 19-9 20-12 14-10 12-11 11-12 8-13 7-14 4-12 2-20v-16l-2-19-3-13-7-15-2-9-4-2-10-16-9-13-13-16-14-15-9-9-8-7-15-13-17-13-10-8z" fill="#15FDFD"/>
<path transform="translate(1471,110)" d="m0 0h8l15 4 16 8 14 11 12 12 1 5-4 3v3l5 3 5 5 8 7 9 11 12 14 11 12 2 4-6-2-33-17-16-8-2-4-8-2-2-4-2-1-2 7-4 1-19-11-2-1-3 6-14 15-16-1-15-2h-2l-2 4-4 5-1 3h8l7 9 10 11 5 7 10 4 12 11 11 13 11 14 12 14 13 16 9 10 13 15 12 14 11 13 11 12 1 3-6-2-22-12-39-19-47-23-33-15-11-8-4-4-2-5-1-2-5 1-10-6-17-9-3-3h-3l-4 8 2 9 8 17-1 5-5 8-5 9-7 2 4 5 8 7 7 8-1 4-3 2 1 3 4 3 2 4 6 3 8 9 9 11 13 15 8 9-2 1-30-15-21-10-3-3-2-3-6-1-5-2-3 5-9-4-15-9-15-14-9-13-5-11-3-15 1-4 8-2h17v-3l-11-1-3-3-1-6v-23l3-17 7-11 11-14 14-18 13-17 9-12 12-15 9-12 4-5 6-5 20-8 18-4 5 1 6 3-2-9v-8l5-2z" fill="#008182"/>
<path transform="translate(700,432)" d="m0 0h30l9 10 18 22 11 13 8 10 14 17 11 13 6 8 1-93h35l1 1v154l-13 1h-16l-5-5-13-15-9-11-11-13-11-14-13-15-11-14-5-6-1 92-12 1h-23l-1-1z" fill="#00C0C1"/>
<path transform="translate(580,428)" d="m0 0h20l17 3 13 5 13 7 13 12 7 9 8 16 4 15 1 8v13l-3 19-6 14-7 11-10 11-13 9-12 6-14 4-16 2h-14l-17-3-12-4-13-7-10-8-7-7-7-10-7-15-3-11-1-6v-21l3-15 5-12 6-11 8-10 11-9 14-8 15-5zm-1 31-14 5-8 6-5 5-6 8-4 10-2 8v17l3 12 6 12 9 9 10 6 9 3 5 1h17l15-5 10-7 8-9 4-8 4-16v-12l-3-14-5-10-9-10-9-6-10-4-4-1z" fill="#00C0C1"/>
<path transform="translate(357,432)" d="m0 0h75l16 2 16 6 10 7 8 8 7 14 3 14v10l-3 14-7 14-9 9-7 5-5 1 5 9 12 17 14 21 2 4-3 1h-34l-4-5-13-18-13-19-1-1-34-1v43l-9 1h-27v-155zm35 30v53h37l10-2 10-6 4-5 3-9v-11l-5-10-8-7-9-3z" fill="#00BEBF"/>
<path transform="translate(1595,372)" d="m0 0 5 2 20 14 14 10 19 14 16 13 10 9 8 7 20 20 9 11 8 10 10 15 8 13 8 19 4 11 2 15 2 6v13l-2 4-2 12-6 15-9 14-11 13-11 10-19 13-23 12-26 10-23 7-29 7-27 5-32 4-21 2-23 1-15 1h-38v-1l29-2 3-1 26-2 17-3 29-5 40-10 31-12 25-12 16-10 14-10 12-11 9-10 5-8h2l1-4 6-11 6-18 2-17 1-9v-7l-2-5-1-15-8-24-13-25-10-15-11-14-13-15-19-19-8-7-11-10-14-11-10-8z" fill="#16FDFD"/>
<path transform="translate(356,320)" d="m0 0h26l1 2-35 3-34 5-34 7-22 5-33 13-20 9-23 14-14 10-12 11-7 9-8 11-8 16-4 10-2 9-1 12-1 3v15l1 2 2 18 7 21 8 16 7 13 11 16 9 11 9 10 7 8 18 18 11 9 14 12 12 9 9 7h-3l-24-16-18-13-15-11-16-13-11-9-16-15-15-15-9-11-10-13-9-14-7-12-6-13-5-15-4-21v-11l4-19 5-12 8-13 10-13 8-8h2l1-3 17-12 11-7 23-11 16-6 24-8 34-8 36-6 37-4z" fill="#16FDFD"/>
<path transform="translate(206,432)" d="m0 0h135l1 6v22l-1 2h-49v125l-14 1h-22l-1-126h-48l-1-1z" fill="#00BDBE"/>
<path transform="translate(1500,432)" d="m0 0h21l1 1v85l43-43 7-8 34-34 2-1h23l1 2-8 7-6 7h-2l-2 4-14 14-1 2h-2l-2 4-15 15-7 8-7 7 11 13 9 11 11 13 9 11 11 13 8 10 11 13-2 2h-23l-5-5-10-11-9-11-10-11-9-11-12-13-5-6-3 1-7 8-11 11-6 5-1 2-1 40-9 1h-12l-1-1z" fill="#00BFC0"/>
<path transform="translate(1236,432)" d="m0 0h20l5 8 16 35 19 42 13 28 12 27 6 13v2l-3 1h-19l-3-5-10-23-4-9v-3h-83l-5 10-11 26-3 4-22-1 2-5 10-21 28-63 7-15 12-26 11-24zm9 24-6 12-9 20-16 36-2 6h67l-5-13-17-38-10-23z" fill="#00C0C1"/>
<path transform="translate(974,428)" d="m0 0h21l17 3 16 6 6 4 1 3-6 15-5-1-10-5-18-5h-25l-11 4-8 5-4 6-2 9 2 9 5 6 14 7 26 7 17 5 16 8 9 8 5 10 2 8v12l-4 13-8 11-11 8-10 4-13 3-11 1h-11l-16-2-20-6-16-9-1-5 6-15 5 1 10 7 15 6 16 3h18l12-3 9-5 5-6 2-6v-9l-4-8-7-6-13-5-30-8-15-5-12-7-7-7-6-12-1-4v-15l3-10 7-11 7-6 8-5 12-4z" fill="#00C0C1"/>
<path transform="translate(1460,226)" d="m0 0 12 5 12 11 11 13 11 14 12 14 13 16 9 10 13 15 12 14 11 13 11 12 1 3-6-2-22-12-39-19-47-23-33-15-11-8-4-4-2-5 1-6 9-12 10-13 15-20z" fill="#16FEFE"/>
<path transform="translate(1408,428)" d="m0 0h9l17 2 15 5 14 8 8 7-1 5-6 5-5 7-8-6-10-7-13-5-5-1h-20l-16 5-12 7-6 5-7 10-6 12-3 13v20l4 15 6 12 11 12 10 6 12 5 11 2h13l16-4 11-6 10-9 7 6 7 7-1 4-9 8-15 8-15 4-5 1h-27l-17-4-11-5-10-6-12-11-9-13-5-11-4-14-1-5v-24l4-17 8-16 7-10 9-9 14-9 16-6 10-2z" fill="#00C0C1"/>
<path transform="translate(1044,432)" d="m0 0h129l1 1v17l-1 1h-53v136l-19 1-3-1v-136h-53l-1-1z" fill="#00BEBF"/>
<path transform="translate(1471,110)" d="m0 0h8l15 4 16 8 14 11 12 12 1 5-4 3v3l5 3 5 5 8 7 9 11 12 14 11 12 2 4-6-2-33-17-16-8-2-4-8-2-2-4-2-1-2 7-4 1-19-11-2-1-3 6-2-4-10-8-10-13-8-15-2-5 1-3 4 2-2-9v-8l5-2z" fill="#15FDFD"/>
<path transform="translate(1338,297)" d="m0 0 9 1 12 5 12 7 6 5-4 3 15 14 4 5-1 4-3 2 1 3 4 3 2 4 6 3 8 9 9 11 13 15 8 9-2 1-30-15-21-10-3-3-2-3-6-1-5-2-3 5-9-4-15-9-15-14-9-13-5-11-3-15 1-4 8-2h17z" fill="#16FEFE"/>
<path transform="translate(1262,80)" d="m0 0h13l9 3 8 6 4 5 3 8 1 8v16l-4 8-6 7-9 6-8 3h-15l-9-4-9-6-7-11-2-7v-13l4-11 7-9 11-7z" fill="#FDFDFD"/>
<path transform="translate(1431,199)" d="m0 0 9 1 7 9 10 11 3 4-1 4-8 11-6 8-10 13-9 12-5 5-4-1-23-12-8-6 3-5 5-5 8-11 20-26 8-11z" fill="#008283"/>
<path transform="translate(1393,129)" d="m0 0 5 5 6 7 3 1-3 1-2 4-9 11-9 12-11 14-26 34-12 15-8 12-3-3-10-5 7-11 11-14 10-13 13-17 8-10 8-14 10-10 9-11z" fill="#15FDFD"/>
<path transform="translate(1185,24)" d="m0 0 22 1 1 2-13 17-11 14-10 13-7 9-2 3-3-8-4-20-1-22 5-3z" fill="#16FEFE"/>
<path transform="translate(1539,162)" d="m0 0 9 6 13 15 9 11 13 14 2 4-6-2-33-17-16-8-2-4-4-2 10-11z" fill="#16FEFE"/>
<path transform="translate(1392,349)" d="m0 0 3 4 6 3 8 9 9 11 13 15 8 9-2 1-30-15-21-10-3-3-2-3-2-1 10-13z" fill="#16FEFE"/>
<path transform="translate(1262,80)" d="m0 0h13l9 3 8 6 4 5 3 8 1 8v16l-4 8-6 7-9 6-8 3h-15l-9-4-9-6-7-11-2-7v-13l4-11 7-9 11-7zm-4 4-12 5-4 3v2h-2l-6 12-1 4v9l4 12 7 9 8 5 9 3 14-1 10-5 5-5 5-7 3-11v-12l-4-10-4-5-10-6-5-2z" fill="#16FEFE"/>
<path transform="translate(1448,247)" d="m0 0 6 1 11 14 11 12v2h2l2 3v3l-7-1-21-11-12-5-2-2v-5l2-3h2l2-5z" fill="#FDFDFD"/>
<path transform="translate(808,432)" d="m0 0h35l1 1v154l-13 1h-15l1-2 24-1 1-124v-27l-33-1v87h-1z" fill="#007F80"/>
<path transform="translate(1431,199)" d="m0 0 5 1v2h-2l-2 5-20 26-9 12-9 11-4 5-4-4 8-9 8-11 20-26 8-11z" fill="#16FEFE"/>
<path transform="translate(735,498)" d="m0 0h1v89l-12 1h-23l4-2 28-1z" fill="#008384"/>
<path transform="translate(842,537)" d="m0 0h2v50l-13 1h-15l1-2 24-1z" fill="#009899"/>
<path transform="translate(1295,134)" d="m0 0v3l-7 8-9 5-6 2h-14l-10-4-8-6h3l8 5 6 2h15l10-4 9-7z" fill="#00C1C2"/>
<path transform="translate(1390,348)" d="m0 0h2l-1 6-8 11-5 5-2-1 2-5z" fill="#009091"/>
<path transform="translate(1537,160)" d="m0 0h2l-1 4-9 10-5 6-4-1v-2l5-5 7-8h2l1-3z" fill="#009697"/>
<path transform="translate(1263,79)" d="m0 0h14l9 3 8 6 4 5 1 9-2-2-3-7-5-6-9-5-17-2z" fill="#00C1C2"/>
<path transform="translate(1216,24)" d="m0 0 13 2 9 2v2l-20-2-2-1z" fill="#01C5C6"/>
<path transform="translate(1186,24)" d="m0 0h29l-4 2h-4l-21-1z" fill="#00C1C2"/>
<path transform="translate(842,572)" d="m0 0h2v15h-5l2-2z" fill="#007F80"/>
<path transform="translate(1336,75)" d="m0 0 4 2 9 7-2 1-11-8z" fill="#00C1C2"/>
<path transform="translate(905,580)" d="m0 0 5 2-2 1z" fill="#16FEFE"/>
<path transform="translate(1650,385)" d="m0 0 3 1h-3z" fill="#16FEFE"/>
<path transform="translate(1593,370)" d="m0 0 2 2h-2z" fill="#B0FDFD"/>
<path transform="translate(903,579)" d="m0 0 2 1z" fill="#16FEFE"/>
<path transform="translate(931,442)" d="m0 0 2 1z" fill="#16FEFE"/>
<path transform="translate(250,655)" d="m0 0" fill="#FDFDFD"/>
<path transform="translate(189,638)" d="m0 0" fill="#16FEFE"/>
<path transform="translate(188,637)" d="m0 0" fill="#16FEFE"/>
<path transform="translate(186,636)" d="m0 0" fill="#16FEFE"/>
<path transform="translate(902,578)" d="m0 0" fill="#16FEFE"/>
<path transform="translate(900,577)" d="m0 0" fill="#16FEFE"/>
<path transform="translate(1591,369)" d="m0 0" fill="#FDFDFD"/>
<path transform="translate(1588,366)" d="m0 0" fill="#16FEFE"/>
</svg>
