<?xml version="1.0" encoding="UTF-8"?>
<svg version="1.1" viewBox="0 0 1860 812" width="1280" height="1280" xmlns="http://www.w3.org/2000/svg">
<path transform="translate(1185,24)" d="m0 0h34l15 3 21 5 21 7 24 11 20 12 15 11 14 11 13 12 8 7 10 10 9 11 12 13 4 4 14-7 15-5 14-3 5 1 6 3-2-9v-8l5-2 17-1 15 4 16 8 14 11 12 12 1 5-4 3v3l5 3 5 5 8 7 9 11 12 14 11 12 2 4-6-2-33-17-16-8-2-4-8-2-2-4-2-1-2 7-4 1-19-11-2-1-3 6-14 15-16-1-15-2h-2l-2 4-4 5-1 3h8l7 9 10 11 5 7 10 4 12 11 11 13 11 14 12 14 13 16 9 10 13 15 12 14 11 13 11 12 1 3-6-2-22-12-39-19-47-23-33-15-11-8-4-4-2-5-1-2-5 1-10-6-17-9-3-3h-3l-4 8 2 9 8 17-1 5-5 8-5 9-7 2 4 5 8 7 7 8-1 4-3 2 1 3 4 3 2 4 6 3 8 9 9 11 13 15 8 9-2 1-30-15-21-10-3-3-2-3-6-1-5-2-3 5-9-4-15-9-15-14-9-13-5-11-3-15 1-4 8-2h17v-3l-11-1-3-3-1-6v-23l3-17-1-5-26-12-25-15-12-8-16-12-13-11-10-9-10-10-18-22-11-17-8-15-8-20-5-16-4-20-1-22 5-3z" fill="#62CEFB"/>
<path transform="translate(275,268)" d="m0 0h47l42 1 49 3 41 4 39 5 47 8 43 9 48 12 31 9 42 13 30 11 43 17 43 19 33 16 22 12 25 14 24 15 7 5-2 1-21-12-23-12-28-13-26-11-23-9-35-13-30-10-43-13-35-9-37-9-50-10-43-7-48-6-51-4-19-1h-72l-42 3-27 3-36 6-23 5-28 8-22 8-20 9-20 11-17 12-10 9-6 5-9 11-7 10-8 16-4 12-2 14v27l3 18 4 16 4 8 3 8 7 9 5 9 12 16 9 11 12 14 9 9 8 7 12 11 11 9 14 11 9 7-2 1-27-18-15-11-14-11-11-9-17-16-29-29v-2h-2l-7-8-10-13-7-9-9-13-12-20-12-28-4-13-2-16-1-6 4-19 6-15 9-16 7-9 7-8 8-7 7-6 15-10 15-9 26-12 22-8 22-7 22-5 22-6 37-6 20-2z" fill="#63CEFB"/>
<path transform="translate(1653,387)" d="m0 0 5 2 24 16 18 13 9 8 12 9 7 6v2l4 2 17 17 6 5 7 8 12 12v2h2l13 17 8 11 10 15 10 18 7 15 4 11 4 14 1 12 2 5-1 6-3 16-6 15-8 14-8 11-12 12h-2l-2 4-11 8-15 10-14 7-15 7-17 7-23 8-15 4-44 11-31 5-30 3h-92l-42-2-46-4-34-4-46-7-50-10-46-11-40-11-45-14-38-14-35-14-30-13-34-16-20-10-23-13-18-10-13-8-16-10 3-1 23 13 30 15 36 16 27 11 41 15 51 16 32 9 56 14 44 9 48 8 48 6 60 5 21 1h58l44-3 37-4 30-5 33-8 26-8 21-8 19-9 20-12 14-10 12-11 11-12 8-13 7-14 4-12 2-20v-16l-2-19-3-13-7-15-2-9-4-2-10-16-9-13-13-16-14-15-9-9-8-7-15-13-17-13-10-8z" fill="#63CEFB"/>
<path transform="translate(1471,110)" d="m0 0h8l15 4 16 8 14 11 12 12 1 5-4 3v3l5 3 5 5 8 7 9 11 12 14 11 12 2 4-6-2-33-17-16-8-2-4-8-2-2-4-2-1-2 7-4 1-19-11-2-1-3 6-14 15-16-1-15-2h-2l-2 4-4 5-1 3h8l7 9 10 11 5 7 10 4 12 11 11 13 11 14 12 14 13 16 9 10 13 15 12 14 11 13 11 12 1 3-6-2-22-12-39-19-47-23-33-15-11-8-4-4-2-5-1-2-5 1-10-6-17-9-3-3h-3l-4 8 2 9 8 17-1 5-5 8-5 9-7 2 4 5 8 7 7 8-1 4-3 2 1 3 4 3 2 4 6 3 8 9 9 11 13 15 8 9-2 1-30-15-21-10-3-3-2-3-6-1-5-2-3 5-9-4-15-9-15-14-9-13-5-11-3-15 1-4 8-2h17v-3l-11-1-3-3-1-6v-23l3-17 6-10 8-11 13-16 11-15 11-14 4-6h2l2-5 13-16 8-11 7-5 20-8 18-4 5 1 6 3-2-9v-8l5-2z" fill="#62CEFB"/>
<path transform="translate(700,432)" d="m0 0h30l9 10 18 22 11 13 8 10 14 17 11 13 6 8 1-93h35l1 1v154l-13 1h-16l-5-5-13-15-9-11-11-13-11-14-13-15-11-14-5-6-1 92-12 1h-23l-1-1z" fill="#62CEFB"/>
<path transform="translate(580,428)" d="m0 0h20l17 3 13 5 13 7 13 12 7 9 8 16 4 15 1 8v13l-3 19-6 14-7 11-10 11-13 9-12 6-14 4-16 2h-14l-17-3-12-4-13-7-10-8-7-7-7-10-7-15-3-11-1-6v-21l3-15 5-12 6-11 8-10 11-9 14-8 15-5zm-1 31-14 5-8 6-5 5-6 8-4 10-2 8v17l3 12 6 12 9 9 10 6 9 3 5 1h17l15-5 10-7 8-9 4-8 4-16v-12l-3-14-5-10-9-10-9-6-10-4-4-1z" fill="#62CEFB"/>
<path transform="translate(357,432)" d="m0 0h75l16 2 16 6 10 7 8 8 7 14 3 14v10l-3 14-7 14-9 9-7 5-5 1 5 9 12 17 14 21 2 4-3 1h-34l-4-5-13-18-13-19-1-1-34-1v43l-9 1h-27v-155zm35 30v53h37l10-2 10-6 4-5 3-9v-11l-5-10-8-7-9-3z" fill="#62CEFB"/>
<path transform="translate(1595,372)" d="m0 0 5 2 20 14 14 10 19 14 16 13 10 9 8 7 20 20 9 11 8 10 10 15 8 13 8 19 4 11 2 15 2 6v13l-2 4-2 12-6 15-9 14-11 13-11 10-19 13-23 12-26 10-23 7-29 7-27 5-32 4-21 2-23 1-15 1h-38v-1l29-2 3-1 26-2 17-3 29-5 40-10 31-12 25-12 16-10 14-10 12-11 9-10 5-8h2l1-4 6-11 6-18 2-17 1-9v-7l-2-5-1-15-8-24-13-25-10-15-11-14-13-15-19-19-8-7-11-10-14-11-10-8z" fill="#AEE7FD"/>
<path transform="translate(356,320)" d="m0 0h26l1 2-35 3-34 5-34 7-22 5-33 13-20 9-23 14-14 10-12 11-7 9-8 11-8 16-4 10-2 9-1 12-1 3v15l1 2 2 18 7 21 8 16 7 13 11 16 9 11 9 10 7 8 18 18 11 9 14 12 12 9 9 7h-3l-24-16-18-13-15-11-16-13-11-9-16-15-15-15-9-11-10-13-9-14-7-12-6-13-5-15-4-21v-11l4-19 5-12 8-13 10-13 8-8h2l1-3 17-12 11-7 23-11 16-6 24-8 34-8 36-6 37-4z" fill="#ADE6FD"/>
<path transform="translate(1431,200)" d="m0 0h9l7 9 10 11 5 7 10 4 12 11 11 13 11 14 12 14 13 16 9 10 13 15 12 14 11 13 11 12 1 3-6-2-22-12-39-19-47-23-33-15-11-8-4-4-2-5-1-2-5 1-10-6-17-9-4-5 14-19 11-13 8-11 10-13z" fill="#63CEFB"/>
<path transform="translate(206,432)" d="m0 0h135l1 6v22l-1 2h-49v125l-14 1h-22l-1-126h-48l-1-1z" fill="#62CEFB"/>
<path transform="translate(1500,432)" d="m0 0h21l1 1v85l43-43 7-8 34-34 2-1h23l1 2-8 7-6 7h-2l-2 4-14 14-1 2h-2l-2 4-15 15-7 8-7 7 11 13 9 11 11 13 9 11 11 13 8 10 11 13-2 2h-23l-5-5-10-11-9-11-10-11-9-11-12-13-5-6-3 1-7 8-11 11-6 5-1 2-1 40-9 1h-12l-1-1z" fill="#62CEFB"/>
<path transform="translate(1236,432)" d="m0 0h20l5 8 16 35 19 42 13 28 12 27 6 13v2l-3 1h-19l-3-5-10-23-4-9v-3h-83l-5 10-11 26-3 4-22-1 2-5 10-21 28-63 7-15 12-26 11-24zm9 24-6 12-9 20-16 36-2 6h67l-5-13-17-38-10-23z" fill="#62CEFB"/>
<path transform="translate(974,428)" d="m0 0h21l17 3 16 6 6 4 1 3-6 15-5-1-10-5-18-5h-25l-11 4-8 5-4 6-2 9 2 9 5 6 14 7 26 7 17 5 16 8 9 8 5 10 2 8v12l-4 13-8 11-11 8-10 4-13 3-11 1h-11l-16-2-20-6-16-9-1-5 6-15 5 1 10 7 15 6 16 3h18l12-3 9-5 5-6 2-6v-9l-4-8-7-6-13-5-30-8-15-5-12-7-7-7-6-12-1-4v-15l3-10 7-11 7-6 8-5 12-4z" fill="#62CEFB"/>
<path transform="translate(1408,428)" d="m0 0h9l17 2 15 5 14 8 8 7-1 5-6 5-5 7-8-6-10-7-13-5-5-1h-20l-16 5-12 7-6 5-7 10-6 12-3 13v20l4 15 6 12 11 12 10 6 12 5 11 2h13l16-4 11-6 10-9 7 6 7 7-1 4-9 8-15 8-15 4-5 1h-27l-17-4-11-5-10-6-12-11-9-13-5-11-4-14-1-5v-24l4-17 8-16 7-10 9-9 14-9 16-6 10-2z" fill="#62CEFB"/>
<path transform="translate(1044,432)" d="m0 0h129l1 1v17l-1 1h-53v136l-19 1-3-1v-136h-53l-1-1z" fill="#62CEFB"/>
<path transform="translate(1471,110)" d="m0 0h8l15 4 16 8 14 11 12 12 1 5-4 3v3l5 3 5 5 8 7 9 11 12 14 11 12 2 4-6-2-33-17-16-8-2-4-8-2-2-4-2-1-2 7-4 1-19-11-2-1-2 3-14-12-7-8-8-14-2-5v-5l3 1-2-9v-8l5-2z" fill="#63CEFB"/>
<path transform="translate(1338,297)" d="m0 0 10 2 16 7 14 9v1l-5 1 4 5 8 7 7 8-1 4-3 2 1 3 4 3 2 4 6 3 8 9 9 11 13 15 8 9-2 1-30-15-21-10-3-3-2-3-6-1-5-2-3 5-9-4-15-9-15-14-9-13-5-11-3-15 1-4 8-2h17z" fill="#63CEFB"/>
<path transform="translate(1261,81)" d="m0 0h12l10 3 8 6 5 6 4 11v17l-5 10-7 8-10 6-6 2h-11l-12-4-9-7-6-10-2-6v-15l5-12 5-6 11-7z" fill="#F9FCFD"/>
<path transform="translate(1456,233)" d="m0 0 5 2 4 5v2l3 1 10 13 4 5 3 3v3l4 2v2h2l4 4v2h2l8 8v2h2l6 8 5 5 9 10 5 7-1 5-5-1-17-9-19-8-9-5-15-7-21-11-6-2-3-2-7-2v-2l-2-1 7-11 12-15z" fill="#AEE7FE"/>
<path transform="translate(674,323)" d="m0 0 27 8 25 9 44 17 32 14 27 12 16 8 27 14 24 14 17 10 14 9 4 4-5-2-21-12-16-8-32-15-26-11-23-9-35-13-30-10-7-2 2-6-5-2-15-8-14-5-11-3-12-5-11-5v-2z" fill="#7DE2FE"/>
<path transform="translate(910,583)" d="m0 0 4 1 38 20 27 13 30 13 39 15 26 9 21 7 23 7 1 2 3 1v2l-8-1-1-1-11-1-5-3-6-1v-2l-11-1-6-3-2 4-2-4v-2l-9 1-2-3v-2l-9 1-2 2-29-13-29-14-23-12-24-14-27-16-6-4z" fill="#7FE1FE"/>
<path transform="translate(1653,387)" d="m0 0 5 2 24 16 18 13 9 8 12 9 7 6v2l4 2 17 17 6 5 7 8 12 12v2l2 1v6l5 4 3 3-6-1-7-3-7-8-5-5-4-7-8-7-5 1-11-14-9-10-7-8-12-12-8-7-15-13-17-13-10-8z" fill="#7CE2FE"/>
<path transform="translate(1501,264)" d="m0 0 5 5 12 14 13 16 9 10 13 15 12 14 11 13 11 12 1 3-6-2-22-12-4-4-4-7-5-3-3-2 1-2-1-2-3-8-7-8-8-9-6-8-7-11-2-1v-3h-2l-1-4h-3l-6-7v-2l-3-1v-3l3-1 2 1z" fill="#7CE2FE"/>
<path transform="translate(1393,352)" d="m0 0 8 4 8 9 9 11 13 15 8 9-2 1-30-15-21-10-3-3-1-4 3-7 6-7h2z" fill="#ACE6FE"/>
<path transform="translate(1537,165)" d="m0 0 4 2 4 6 8 7v2l2-1-5-5-4-6h4l11 13 9 11 13 14 2 4-6-2-33-17-16-8-2-4-5-1v-1h5v-4h2l2-4z" fill="#7FE2FE"/>
<path transform="translate(88,555)" d="m0 0 3 1v2l4-1 3 3 8 3v2l4 1 9 10 7 8 17 16 15 13 15 12 13 10-2 1-27-18-15-11-14-11-11-9-17-16-13-13z" fill="#84E2FE"/>
<path transform="translate(1449,244)" d="m0 0 4 2 6 8 12 13v2h2l7 8 3 3v4l-6-1-29-15-11-4-1-1v-5l7-8 5-5z" fill="#FBFCFD"/>
<path transform="translate(1400,139)" d="m0 0 4 2-2 5-8 10-11 14-3 5-3 3-30 39-8 10-10 14-3 4-2-3-3-2 5-3 11-16 8-10 4-6h2l2-4 33-44 8-9z" fill="#AEE7FE"/>
<path transform="translate(1537,165)" d="m0 0 4 2 4 6 8 7 8 10 1 4h-2l1 3-4-2-7-3v-2h-4v-3l-4 1-5-5-6-2v-2h-2l1-6z" fill="#AEE7FE"/>
<path transform="translate(1397,355)" d="m0 0 4 1 8 9 9 11 13 15 8 9-2 1-30-15-2-5 5 1v3h7l-2-6-2-4-4-2-11-11z" fill="#7BE0FE"/>
<path transform="translate(1431,200)" d="m0 0h5l-7 11-16 20-12 16-8 10-2 4-4-4 14-19 11-13 8-11 10-13z" fill="#ADE6FE"/>
<path transform="translate(1062,651)" d="m0 0 6 1 27 9 23 7 1 2 3 1v2l-8-1-1-1-11-1-5-3-6-1v-2l-11-1-6-3-2 4-2-4v-2l-9 1-2-3z" fill="#7AE2FE"/>
<path transform="translate(1504,119)" d="m0 0 10 6 11 9 11 11-1 5-5 1-5-5-2-5-4-2-12-10-3-7z" fill="#7BE2FE"/>
<path transform="translate(1459,128)" d="m0 0 2 4 6 11 10 13 6 7 4 3v2h2l-1 5-8-6-10-9-9-13-5-11v-5l3 1z" fill="#B2E8FD"/>
<path transform="translate(1130,672)" d="m0 0 34 9 4 3v2l6-1 7 2v4l-4 1-16-5-9-3-9-2-15-5-2-2 4-1z" fill="#79E1FE"/>
<path transform="translate(88,555)" d="m0 0 3 1v2l4-1 3 3 8 3v2l4 1 7 8v3l-7-1-1 2-6-4-16-16z" fill="#78E1FE"/>
<path transform="translate(1653,387)" d="m0 0 5 2 24 16 18 13-2 3 5 4 6 7-1 2-16-15-11-9-15-12-13-10z" fill="#89E4FE"/>
<path transform="translate(1338,297)" d="m0 0 10 2 16 7 14 9v1l-7 2-13-8-8-4-10-3-3-3z" fill="#AEE7FD"/>
<path transform="translate(1528,175)" d="m0 0 1 4h2v2l6 1 5 4v2l4-1v3h4v2l8 2 2 2v-2l3-1v6l-3 1-17-8-13-7-2-4-5-1v-1h5z" fill="#79DEFE"/>
<path transform="translate(1699,419)" d="m0 0 4 2 18 14 1 4-4 3-3-3-5-3-4-6-6-7-3-2z" fill="#66CFFB"/>
<path transform="translate(873,411)" d="m0 0 11 3 5 3 7 3 5 2 20 12 10 7-2 1-21-12-23-12-12-6z" fill="#81E3FE"/>
<path transform="translate(1390,357)" d="m0 0 5 2 1 4 4 2v2h-3v2h-10l-3-2 1-5z" fill="#F8FBFD"/>
<path transform="translate(120,584)" d="m0 0 3 2v3l7 1 3 4 4 2 2 3 4 5 3 3h-4l-14-11-7-6z" fill="#6ED4FC"/>
<path transform="translate(1458,134)" d="m0 0h2l6 10 5 7v3l4 2 2 2v3h2v2l-4-2-9-8-8-14z" fill="#EFF9FD"/>
<path transform="translate(1380,325)" d="m0 0 7 6 5 6-1 4-6 2-4-11-3-5z" fill="#7DE2FE"/>
<path transform="translate(1536,168)" d="m0 0 4 1 3 6 4 2-4 3h-7l-4-7 1-3z" fill="#FBFCFD"/>
<path transform="translate(1531,153)" d="m0 0 2 3 4 2-6 7-3 4h-2l-2 4-2-2 4-7 3-9h2z" fill="#AEE7FE"/>
<path transform="translate(910,583)" d="m0 0 4 1 19 10 11 6 2 5-5-2-25-15-6-4z" fill="#85E2FE"/>
<path transform="translate(864,402)" d="m0 0 6 2 25 14v3l-10-5-12-5-2-3-5-2z" fill="#67D1FB"/>
<path transform="translate(159,615)" d="m0 0 4 2 14 11 9 7-2 1-26-17z" fill="#B6E9FD"/>
<path transform="translate(1383,371)" d="m0 0 10 2 3 3 7 2 1 5-6-1-13-7z" fill="#71D6FC"/>
<path transform="translate(1539,162)" d="m0 0 9 6-1 3 5 5 4 6h-3l-5-5-7-8-3-5z" fill="#6DD7FC"/>
<path transform="translate(98,568)" d="m0 0h4l5 5h3l-1-3h4l4 4v3l-7-1-1 2-6-4z" fill="#66CFFB"/>
<path transform="translate(1694,416)" d="m0 0 5 1v3l-1 1 5 4 6 7-1 2-16-15z" fill="#76DCFD"/>
<path transform="translate(1386,346)" d="m0 0 2 4-4 6-5 6-3 1 1-5 3-1v-2h2l1-7z" fill="#AEE7FE"/>
<path transform="translate(1470,701)" d="m0 0h3v2h6v1h-38v-1z" fill="#FDFDFD"/>
<path transform="translate(907,426)" d="m0 0 11 6 13 9-2 1-21-12-2-2z" fill="#9DE4FE"/>
<path transform="translate(1459,128)" d="m0 0 2 4 6 11 3 4-1 2-8-11-1-4h-2l-1 3-1-8 3 1z" fill="#AEE7FE"/>
<path transform="translate(1653,387)" d="m0 0 5 2 15 10-1 4-14-11z" fill="#AEE7FE"/>
<path transform="translate(1417,380)" d="m0 0 2 3v6l-3 1-9-4-2-5 5 1v3h7z" fill="#63CEFB"/>
<path transform="translate(149,609)" d="m0 0h5l6 7-1 2-5-2-7-5z" fill="#85DFFD"/>
<path transform="translate(140,599)" d="m0 0 4 2 8 7v2h-6l-2-2v-2l-4-5z" fill="#7EE1FE"/>
<path transform="translate(1673,400)" d="m0 0 5 2 8 6-1 3-3-3-5-1-4-3z" fill="#82E1FE"/>
<path transform="translate(1775,490)" d="m0 0 5 4 5 8-6-2-4-4z" fill="#68D1FB"/>
<path transform="translate(1808,539)" d="m0 0 5 3 3 7h-3l-4-2-1-4z" fill="#7AE1FE"/>
<path transform="translate(1728,446)" d="m0 0 8 6 4 4v2h2v2l-5-2-6-6v-2h-2z" fill="#62CEFB"/>
<path transform="translate(356,320)" d="m0 0h26l1 2-17 1v-1l-10-1z" fill="#FDFDFD"/>
<path transform="translate(232,642)" d="m0 0 5 2 13 10h-3l-15-10z" fill="#FDFDFD"/>
<path transform="translate(1383,371)" d="m0 0 10 2 1 2h-2v3l-6-2-3-3z" fill="#75DAFD"/>
<path transform="translate(1395,133)" d="m0 0 3 1-1 5-2 2-7 2 2-4 4-3z" fill="#79E2FE"/>
<path transform="translate(159,615)" d="m0 0 4 2 5 4v2l-5-1-5-4z" fill="#A0E4FE"/>
<path transform="translate(873,411)" d="m0 0 11 3 5 3 3 2-1 2-17-8z" fill="#84E3FE"/>
<path transform="translate(943,601)" d="m0 0 5 1 9 5v2l-5-2-7-3z" fill="#6ED3FB"/>
<path transform="translate(1700,419)" d="m0 0 8 6 4 4-2 2-6-5-4-5z" fill="#7FE2FE"/>
<path transform="translate(1165,682)" d="m0 0 11 2 4 2-5 1-2-1h-5v-2l-3-1z" fill="#6BD1FB"/>
<path transform="translate(910,583)" d="m0 0 4 1 11 6-2 2-13-8z" fill="#ACE6FE"/>
<path transform="translate(1698,422)" d="m0 0 4 2 7 8-1 2-10-9z" fill="#82E3FE"/>
<path transform="translate(1397,355)" d="m0 0 4 1 3 4-2 1-2-1v2h-2z" fill="#72D6FC"/>
<path transform="translate(936,598)" d="m0 0 6 1 2 2 2 4-5-2-5-3z" fill="#89E4FE"/>
<path transform="translate(98,568)" d="m0 0h4l4 4v2l3 1-4 1-7-7z" fill="#71D4FB"/>
<path transform="translate(884,413)" d="m0 0 5 2 7 4-1 2-10-5z" fill="#6CD3FB"/>
<path transform="translate(850,394)" d="m0 0 9 5 2 4-4-2-5-2z" fill="#67D1FB"/>
<path transform="translate(905,580)" d="m0 0 5 2-2 1z" fill="#AEE7FE"/>
<path transform="translate(1650,385)" d="m0 0 3 1h-3z" fill="#FDFDFD"/>
<path transform="translate(1593,370)" d="m0 0 2 2h-2z" fill="#FDFDFD"/>
<path transform="translate(903,579)" d="m0 0 2 1z" fill="#D5F2FD"/>
<path transform="translate(931,442)" d="m0 0 2 1z" fill="#AEE7FE"/>
<path transform="translate(250,655)" d="m0 0" fill="#FDFDFD"/>
<path transform="translate(189,638)" d="m0 0" fill="#FDFDFD"/>
<path transform="translate(188,637)" d="m0 0" fill="#FDFDFD"/>
<path transform="translate(186,636)" d="m0 0" fill="#FDFDFD"/>
<path transform="translate(902,578)" d="m0 0" fill="#FDFDFD"/>
<path transform="translate(900,577)" d="m0 0" fill="#FDFDFD"/>
<path transform="translate(1591,369)" d="m0 0" fill="#FDFDFD"/>
<path transform="translate(1588,366)" d="m0 0" fill="#FDFDFD"/>
</svg>
